<?xml version="1.0" encoding="utf-8"?>
<svg viewBox="-0.4694 -1.3827 500.4694 258.6767" xmlns="http://www.w3.org/2000/svg">
  <rect width="500" height="257.294" style="stroke: rgb(216, 216, 216); fill: rgb(174, 214, 241);" transform="matrix(1, 0, 0, 1, 2.842170943040401e-14, 0)"/>
  <g transform="matrix(0.6205970048904419, 0, 0, 0.49044901132583624, 248.29031372070315, 56.863201141357436)" style="">
    <path d="m259.4 55.476c-15.199 0.55954-32.249 5.6533-41.344 16.562-13.229 28.188 18.908 15.173 22.688 34.688s-18.906 20.594-18.906 20.594h-97.75v99.156c-0.2722 3.1296-2.5349 21.218-20.438 17.75-19.515-3.7798-6.4998-35.886-34.688-22.656-9.207 7.6759-14.275 20.979-15.969 34.094-0.02646 0.20482-0.06894 0.42031-0.09375 0.625-0.9667 4.612-1.4566 9.889-1.25 15.5 0.55954 15.199 5.6533 32.249 16.562 41.344 28.188 13.229 15.173-18.908 34.688-22.688s20.594 18.906 20.594 18.906l0.59375 97.719 98.094-0.78125s22.686-1.0792 18.906-20.594-35.886-6.4998-22.656-34.688c9.0951-10.909 26.113-16.003 41.312-16.562 5.611-0.20656 10.888 0.28329 15.5 1.25 0.20469 0.02481 0.42018 0.06728 0.625 0.09375 13.114 1.6939 26.449 6.7618 34.125 15.969 13.229 28.188-18.908 15.173-22.688 34.688s18.906 20.594 18.906 20.594l97.188 0.03125-0.625-98.25s-1.0792-22.686-20.594-18.906-6.4998 35.917-34.688 22.688c-10.909-9.0951-16.003-26.144-16.562-41.344-0.20656-5.611 0.28329-10.888 1.25-15.5 0.02481-0.20469 0.06728-0.42019 0.09375-0.625 1.6939-13.114 6.7618-26.418 15.969-34.094 5.2852-2.4805 9.1258-3.3791 12-3.1562 12.455 0.96571 6.8319 22.741 22.688 25.812 18.208 3.5267 20.261-15.34 20.469-17.969v-98.406h-102.16c-6.4056-1.4819-16.964-5.9919-14.281-19.844 3.7798-19.515 35.886-6.4998 22.656-34.688-7.676-9.2069-20.979-14.275-34.094-15.969-0.20483-0.02646-0.42031-0.06894-0.625-0.09375-4.612-0.9667-9.889-1.4566-15.5-1.25z" fill-opacity=".5" fill-rule="evenodd" style="fill: rgb(214, 234, 248);"/>
  </g>
  <g transform="matrix(-0.566395998001, 0, 0, -0.434385001659, -5.291551881899, -145.611397824878)" style="transform-origin: 256.518px 223.827px;">
    <path d="m260.91 55.476c-15.199 0.55954-32.249 5.6533-41.344 16.562-13.229 28.188 18.908 15.173 22.688 34.688s-18.906 20.594-18.906 20.594h-97.75v99.156c-0.2722 3.1296-2.5349 21.218-20.438 17.75-19.515-3.7798-6.4998-35.886-34.688-22.656-9.207 7.6759-14.275 20.979-15.969 34.094-0.02646 0.20482-0.06894 0.42031-0.09375 0.625-0.9667 4.612-1.4566 9.889-1.25 15.5 0.55954 15.199 5.6533 32.249 16.562 41.344 28.188 13.229 15.173-18.908 34.688-22.688s20.594 18.906 20.594 18.906l0.59375 97.719 98.094-0.78125s22.686-1.0792 18.906-20.594-35.886-6.4998-22.656-34.688c9.0951-10.909 26.113-16.003 41.312-16.562 5.611-0.20656 10.888 0.28329 15.5 1.25 0.20469 0.02481 0.42018 0.06728 0.625 0.09375 13.114 1.6939 26.449 6.7618 34.125 15.969 13.229 28.188-18.908 15.173-22.688 34.688s18.906 20.594 18.906 20.594l97.188 0.03125v-102.09c1.3864-6.3521 5.8027-17.457 19.938-14.719 19.515 3.7798 6.4998 35.917 34.688 22.688 9.2069-7.6759 14.275-21.011 15.969-34.125 0.02645-0.20482 0.06894-0.38906 0.09375-0.59375 0.96669-4.612 1.4566-9.889 1.25-15.5-0.55955-15.199-5.6533-32.249-16.562-41.344-28.188-13.229-15.173 18.908-34.688 22.688s-20.594-18.906-20.594-18.906l-0.09375-97.844h-102.16c-6.4056-1.4819-16.964-5.9919-14.281-19.844 3.7798-19.515 35.886-6.4998 22.656-34.688-7.676-9.2069-20.979-14.275-34.094-15.969-0.20483-0.02645-0.42031-0.06894-0.625-0.09375-4.612-0.9667-9.889-1.4566-15.5-1.25z" fill-opacity=".5" fill-rule="evenodd" style="fill: rgb(214, 234, 248);"/>
  </g>
  <g transform="matrix(0, 0.483608007431, -0.60400801897, 0, -131.420424547741, -92.457632135935)" style="transform-origin: 220.393px 260.55px;">
    <path d="m125.34 128.88v99.156c-0.2722 3.1296-2.5349 21.218-20.438 17.75-19.515-3.7798-6.4998-35.886-34.688-22.656-9.207 7.6759-14.275 20.979-15.969 34.094-0.02646 0.20482-0.06894 0.42031-0.09375 0.625-0.9667 4.612-1.4566 9.889-1.25 15.5 0.55954 15.199 5.6533 32.249 16.562 41.344 28.188 13.229 15.173-18.908 34.688-22.688s20.594 18.906 20.594 18.906l0.59375 97.719 98.094-0.78125s22.686-1.0792 18.906-20.594-35.886-6.4998-22.656-34.688c9.0951-10.909 26.113-16.003 41.312-16.562 5.611-0.20656 10.888 0.28329 15.5 1.25 0.20469 0.02481 0.42018 0.06728 0.625 0.09375 13.114 1.6939 26.449 6.7618 34.125 15.969 13.229 28.188-18.908 15.173-22.688 34.688s18.906 20.594 18.906 20.594l97.188 0.03125-0.625-98.25s-1.0792-22.686-20.594-18.906-6.4998 35.917-34.688 22.688c-10.909-9.0951-16.003-26.144-16.562-41.344-0.20656-5.611 0.28329-10.888 1.25-15.5 0.02481-0.20469 0.06728-0.42019 0.09375-0.625 1.6939-13.114 6.7618-26.418 15.969-34.094 5.2852-2.4805 9.1258-3.3791 12-3.1562 12.455 0.96571 6.8319 22.741 22.688 25.812 18.208 3.5267 20.261-15.34 20.469-17.969v-98.406l-97.344 0.71875s-22.686 1.0792-18.906 20.594 35.917 6.4998 22.688 34.688c-9.0951 10.909-26.144 16.003-41.344 16.562-5.611 0.20656-10.888-0.2833-15.5-1.25-0.20469-0.02481-0.42018-0.06729-0.625-0.09375-13.114-1.6939-26.418-6.7618-34.094-15.969-13.229-28.188 18.876-15.173 22.656-34.688 3.7201-19.207-17.964-20.525-18.656-20.562h-98.188z" fill-opacity=".5" fill-rule="evenodd" style="fill: rgb(133, 193, 233);"/>
  </g>
</svg>