<?xml version="1.0" encoding="utf-8"?>
<svg viewBox="-0.663 16.578 499.973 272.5956" xmlns="http://www.w3.org/2000/svg" xmlns:bx="https://boxy-svg.com">
  <rect style="stroke: rgb(216, 216, 216); fill: rgb(174, 214, 241);" width="499.973" height="271.524" x="-0.663" y="16.578" transform="matrix(1, 0, 0, 1, 7.105427357601002e-15, 7.105427357601002e-15)"/>
  <g transform="matrix(0.6205620765686035, 0, 0, 0.5175729990005493, 248.08450317382815, 78.04665374755861)" style="">
    <path d="m259.4 55.476c-15.199 0.55954-32.249 5.6533-41.344 16.562-13.229 28.188 18.908 15.173 22.688 34.688s-18.906 20.594-18.906 20.594h-97.75v99.156c-0.2722 3.1296-2.5349 21.218-20.438 17.75-19.515-3.7798-6.4998-35.886-34.688-22.656-9.207 7.6759-14.275 20.979-15.969 34.094-0.02646 0.20482-0.06894 0.42031-0.09375 0.625-0.9667 4.612-1.4566 9.889-1.25 15.5 0.55954 15.199 5.6533 32.249 16.562 41.344 28.188 13.229 15.173-18.908 34.688-22.688s20.594 18.906 20.594 18.906l0.59375 97.719 98.094-0.78125s22.686-1.0792 18.906-20.594-35.886-6.4998-22.656-34.688c9.0951-10.909 26.113-16.003 41.312-16.562 5.611-0.20656 10.888 0.28329 15.5 1.25 0.20469 0.02481 0.42018 0.06728 0.625 0.09375 13.114 1.6939 26.449 6.7618 34.125 15.969 13.229 28.188-18.908 15.173-22.688 34.688s18.906 20.594 18.906 20.594l97.188 0.03125-0.625-98.25s-1.0792-22.686-20.594-18.906-6.4998 35.917-34.688 22.688c-10.909-9.0951-16.003-26.144-16.562-41.344-0.20656-5.611 0.28329-10.888 1.25-15.5 0.02481-0.20469 0.06728-0.42019 0.09375-0.625 1.6939-13.114 6.7618-26.418 15.969-34.094 5.2852-2.4805 9.1258-3.3791 12-3.1562 12.455 0.96571 6.8319 22.741 22.688 25.812 18.208 3.5267 20.261-15.34 20.469-17.969v-98.406h-102.16c-6.4056-1.4819-16.964-5.9919-14.281-19.844 3.7798-19.515 35.886-6.4998 22.656-34.688-7.676-9.2069-20.979-14.275-34.094-15.969-0.20483-0.02646-0.42031-0.06894-0.625-0.09375-4.612-0.9667-9.889-1.4566-15.5-1.25z" fill-opacity=".5" fill-rule="evenodd" style="fill: rgb(214, 234, 248);"/>
  </g>
  <g transform="matrix(-0.566366016865, 0, 0, -0.458409011364, -5.122026462899, -122.981860101763)" style="transform-origin: 256.518px 223.827px;">
    <path d="m260.91 55.476c-15.199 0.55954-32.249 5.6533-41.344 16.562-13.229 28.188 18.908 15.173 22.688 34.688s-18.906 20.594-18.906 20.594h-97.75v99.156c-0.2722 3.1296-2.5349 21.218-20.438 17.75-19.515-3.7798-6.4998-35.886-34.688-22.656-9.207 7.6759-14.275 20.979-15.969 34.094-0.02646 0.20482-0.06894 0.42031-0.09375 0.625-0.9667 4.612-1.4566 9.889-1.25 15.5 0.55954 15.199 5.6533 32.249 16.562 41.344 28.188 13.229 15.173-18.908 34.688-22.688s20.594 18.906 20.594 18.906l0.59375 97.719 98.094-0.78125s22.686-1.0792 18.906-20.594-35.886-6.4998-22.656-34.688c9.0951-10.909 26.113-16.003 41.312-16.562 5.611-0.20656 10.888 0.28329 15.5 1.25 0.20469 0.02481 0.42018 0.06728 0.625 0.09375 13.114 1.6939 26.449 6.7618 34.125 15.969 13.229 28.188-18.908 15.173-22.688 34.688s18.906 20.594 18.906 20.594l97.188 0.03125v-102.09c1.3864-6.3521 5.8027-17.457 19.938-14.719 19.515 3.7798 6.4998 35.917 34.688 22.688 9.2069-7.6759 14.275-21.011 15.969-34.125 0.02645-0.20482 0.06894-0.38906 0.09375-0.59375 0.96669-4.612 1.4566-9.889 1.25-15.5-0.55955-15.199-5.6533-32.249-16.562-41.344-28.188-13.229-15.173 18.908-34.688 22.688s-20.594-18.906-20.594-18.906l-0.09375-97.844h-102.16c-6.4056-1.4819-16.964-5.9919-14.281-19.844 3.7798-19.515 35.886-6.4998 22.656-34.688-7.676-9.2069-20.979-14.275-34.094-15.969-0.20483-0.02645-0.42031-0.06894-0.625-0.09375-4.612-0.9667-9.889-1.4566-15.5-1.25z" fill-opacity=".5" fill-rule="evenodd" style="fill: rgb(214, 234, 248);"/>
  </g>
  <g transform="matrix(0, 0.510353922844, -0.603973925114, 0, -131.210555797266, -65.413517498158)" style="transform-origin: 220.393px 260.55px;">
    <path d="m125.34 128.88v99.156c-0.2722 3.1296-2.5349 21.218-20.438 17.75-19.515-3.7798-6.4998-35.886-34.688-22.656-9.207 7.6759-14.275 20.979-15.969 34.094-0.02646 0.20482-0.06894 0.42031-0.09375 0.625-0.9667 4.612-1.4566 9.889-1.25 15.5 0.55954 15.199 5.6533 32.249 16.562 41.344 28.188 13.229 15.173-18.908 34.688-22.688s20.594 18.906 20.594 18.906l0.59375 97.719 98.094-0.78125s22.686-1.0792 18.906-20.594-35.886-6.4998-22.656-34.688c9.0951-10.909 26.113-16.003 41.312-16.562 5.611-0.20656 10.888 0.28329 15.5 1.25 0.20469 0.02481 0.42018 0.06728 0.625 0.09375 13.114 1.6939 26.449 6.7618 34.125 15.969 13.229 28.188-18.908 15.173-22.688 34.688s18.906 20.594 18.906 20.594l97.188 0.03125-0.625-98.25s-1.0792-22.686-20.594-18.906-6.4998 35.917-34.688 22.688c-10.909-9.0951-16.003-26.144-16.562-41.344-0.20656-5.611 0.28329-10.888 1.25-15.5 0.02481-0.20469 0.06728-0.42019 0.09375-0.625 1.6939-13.114 6.7618-26.418 15.969-34.094 5.2852-2.4805 9.1258-3.3791 12-3.1562 12.455 0.96571 6.8319 22.741 22.688 25.812 18.208 3.5267 20.261-15.34 20.469-17.969v-98.406l-97.344 0.71875s-22.686 1.0792-18.906 20.594 35.917 6.4998 22.688 34.688c-9.0951 10.909-26.144 16.003-41.344 16.562-5.611 0.20656-10.888-0.2833-15.5-1.25-0.20469-0.02481-0.42018-0.06729-0.625-0.09375-13.114-1.6939-26.418-6.7618-34.094-15.969-13.229-28.188 18.876-15.173 22.656-34.688 3.7201-19.207-17.964-20.525-18.656-20.562h-98.188z" fill-opacity=".5" fill-rule="evenodd" style="fill: rgb(133, 193, 233);"/>
  </g>
  <text style="fill: rgb(51, 51, 51); font-family: Comfortaa; font-size: 18.6px; white-space: pre;" transform="matrix(1.0160709619522095, 0, 0, 1.0582679510116577, -156.53160095214844, 1.4239010810852122)"><tspan x="187.518" y="103.154">                Te damos la bienvenida a </tspan><tspan x="187.518" dy="1em">​</tspan><tspan style="font-weight: 700;">Comercializadora</tspan><tspan> </tspan><tspan style="font-weight: 700;">Guten Morgen </tspan><tspan>Web Store</tspan></text>
  <rect style="fill: rgb(194, 224, 245); stroke: rgb(255, 255, 255);" x="137" y="145" width="218" height="38.85" rx="10" ry="10" transform="matrix(1, 0, 0, 1, 7.105427357601002e-15, 7.105427357601002e-15)"/>
  <path style="stroke: rgb(0, 0, 0); fill: rgb(64, 255, 52); transform-origin: 177px 121.469px;" d="M 149.823 152.048 H 165.578 A 2 2 0 0 1 167.578 154.048 V 176.776 A 1 1 0 0 1 166.578 177.776 H 149.823 A 5 5 0 0 1 144.823 172.776 V 157.048 A 5 5 0 0 1 149.823 152.048 Z" bx:shape="rect 144.823 152.048 22.755 25.728 5 2 1 5 1@4a6e9560"/>
  <rect style="fill: rgb(255, 255, 87); stroke: rgb(0, 0, 0); transform-origin: 244.939px 164.582px;" x="180.093" y="151.39" width="22.755" height="25.728" rx="2" ry="2"/>
  <rect style="fill: rgb(255, 0, 0); stroke: rgb(0, 0, 0); transform-origin: 244.939px 164.582px;" x="215.835" y="151.39" width="22.755" height="25.728" rx="2" ry="2"/>
  <rect style="fill: rgb(255, 255, 255); stroke: rgb(0, 0, 0); transform-origin: 244.939px 164.582px;" x="251.578" y="151.39" width="22.755" height="25.728" rx="2" ry="2"/>
  <rect style="stroke: rgb(0, 0, 0); fill: rgb(47, 255, 249); transform-origin: 244.939px 164.582px;" x="287.321" y="151.39" width="22.755" height="25.728" rx="2" ry="2"/>
  <path style="stroke: rgb(0, 0, 0); fill: rgb(255, 255, 255); transform-origin: 177px 121.469px;" d="M 324.799 151.39 H 340.554 A 5 5 0 0 1 345.554 156.39 V 172.118 A 5 5 0 0 1 340.554 177.118 H 324.799 A 2 2 0 0 1 322.799 175.118 V 153.39 A 2 2 0 0 1 324.799 151.39 Z" bx:shape="rect 322.799 151.39 22.755 25.728 2 5 5 2 1@16d94843"/>
  <path d="M 152.806 163.945 C 153.184 163.853 153.425 163.417 153.351 162.968 C 153.276 162.519 152.91 162.227 152.534 162.319 C 151.696 162.518 151.064 163.213 150.729 164.153 C 150.397 165.08 150.344 166.239 150.606 167.479 C 150.699 167.924 151.075 168.197 151.448 168.085 C 151.82 167.973 152.048 167.522 151.954 167.078 C 151.751 166.108 151.818 165.33 152.006 164.807 C 152.189 164.29 152.486 164.02 152.806 163.945 Z M 150.095 155.298 C 150.017 156.832 150.456 158.396 151.408 159.592 C 149.668 160.189 148.285 161.958 148.016 164.256 C 147.712 166.862 148.161 169.515 149.288 171.775 L 149.611 172.429 C 149.626 172.453 149.639 172.475 149.655 172.496 L 150.966 174.608 C 152.147 176.508 154.478 176.686 155.851 174.978 C 156.012 174.781 156.277 174.781 156.436 174.978 C 157.812 176.686 160.14 176.508 161.324 174.608 L 162.635 172.496 C 162.651 172.475 162.662 172.453 162.673 172.429 L 163 171.775 C 164.128 169.515 164.577 166.862 164.272 164.256 C 163.894 161.013 161.297 158.829 158.611 159.494 L 156.85 159.931 L 156.846 159.931 C 156.874 159.068 156.988 158.138 157.208 157.343 C 157.477 156.381 157.85 155.806 158.266 155.6 C 158.618 155.423 158.786 154.937 158.64 154.515 C 158.49 154.09 158.085 153.891 157.73 154.067 C 156.754 154.554 156.201 155.705 155.89 156.818 C 155.877 156.869 155.86 156.923 155.846 156.975 C 155.627 156.461 155.336 155.979 154.975 155.549 C 153.963 154.34 152.61 153.783 151.285 153.878 C 150.643 153.921 150.133 154.53 150.095 155.298 Z M 151.48 155.527 C 152.385 155.497 153.299 155.895 153.992 156.721 C 154.681 157.547 155.016 158.639 154.992 159.72 C 154.823 159.724 154.655 159.718 154.489 159.694 L 153.915 159.554 C 153.39 159.364 152.895 159.022 152.479 158.526 C 151.786 157.703 151.452 156.611 151.48 155.527 Z M 153.396 161.12 L 153.582 161.165 C 153.804 161.241 154.03 161.296 154.258 161.331 L 155.155 161.554 C 155.809 161.716 156.481 161.716 157.129 161.554 L 158.894 161.12 C 160.791 160.648 162.627 162.194 162.895 164.486 C 163.155 166.717 162.773 168.99 161.806 170.926 L 161.501 171.541 L 160.208 173.62 C 159.539 174.696 158.217 174.796 157.437 173.83 C 156.732 172.951 155.557 172.951 154.851 173.83 C 154.07 174.796 152.751 174.696 152.08 173.62 L 150.789 171.541 L 150.481 170.926 C 149.518 168.99 149.131 166.717 149.393 164.486 C 149.661 162.194 151.496 160.648 153.396 161.12 Z" style="transform-origin: 244.939px 164.582px;"/>
  <g transform="matrix(0.987593114376, 0, 0, 1.238218069077, 323.216883118183, 153.126508568348)" style="transform-origin: -78.278px 11.4557px;">
    <g transform="matrix(0.884693, 0, 0, 0.9, 1.06976, 0.567901)">
      <circle cx="12" cy="3.5" fill="none" r=".75"/>
      <circle cx="12" cy="3.5" fill="none" r=".75"/>
      <circle cx="12" cy="3.5" fill="none" r=".75"/>
      <path d="M19,3h-4.18C14.4,1.84,13.3,1,12,1S9.6,1.84,9.18,3H5C4.86,3,4.73,3.01,4.6,3.04C4.21,3.12,3.86,3.32,3.59,3.59 c-0.18,0.18-0.33,0.4-0.43,0.64C3.06,4.46,3,4.72,3,5v14c0,0.27,0.06,0.54,0.16,0.78c0.1,0.24,0.25,0.45,0.43,0.64 c0.27,0.27,0.62,0.47,1.01,0.55C4.73,20.99,4.86,21,5,21h14c1.1,0,2-0.9,2-2V5C21,3.9,20.1,3,19,3z M11,14.17l-1.41,1.42L6,12 l3.59-3.59L11,9.83L8.83,12L11,14.17z M12,4.25c-0.41,0-0.75-0.34-0.75-0.75S11.59,2.75,12,2.75s0.75,0.34,0.75,0.75 S12.41,4.25,12,4.25z M14.41,15.59L13,14.17L15.17,12L13,9.83l1.41-1.42L18,12L14.41,15.59z"/>
    </g>
  </g>
  <g transform="matrix(0.992865025997, 0, 0, 1.129603981972, 286.787510835788, 151.364931515812)" style="transform-origin: -41.8486px 13.2173px;">
    <path d="M6.99805 4V11L11.998 8.5L16.998 11V4H19.998C20.5503 4 20.998 4.44772 20.998 5V21C20.998 21.5523 20.5503 22 19.998 22H3.99805C3.44576 22 2.99805 21.5523 2.99805 21V5C2.99805 4.44772 3.44576 4 3.99805 4H6.99805ZM11.998 8L7.49805 3H16.498L11.998 8ZM12.998 11.2361L11.998 10.7361L10.998 11.2361V20H12.998V11.2361ZM14.998 14V16H18.998V14H14.998Z" style="fill: rgb(25, 0, 181);"/>
  </g>
  <g transform="matrix(0.891958892345, 0, 0, 1.174033999443, 252.032930874272, 153.161257391157)" style="transform-origin: -7.09407px 11.421px;">
    <path d="M 4.525 2.997 L 20.048 2.997 C 20.584 2.997 21.018 3.393 21.018 3.885 L 21.018 8.326 C 21.018 8.816 20.584 9.214 20.048 9.214 L 4.525 9.214 C 3.99 9.214 3.555 8.816 3.555 8.326 L 3.555 3.885 C 3.555 3.393 3.99 2.997 4.525 2.997 Z M 6.466 10.99 L 12.287 10.99 C 12.822 10.99 13.257 11.387 13.257 11.878 L 13.257 14.543 L 14.227 14.543 L 14.227 19.872 L 10.346 19.872 L 10.346 14.543 L 11.316 14.543 L 11.316 12.766 L 5.495 12.766 C 4.96 12.766 4.525 12.368 4.525 11.878 L 4.525 10.102 L 6.466 10.102 L 6.466 10.99 Z M 17.848 12.529 L 19.563 10.958 L 21.278 12.529 C 22.225 13.396 22.225 14.801 21.278 15.668 C 20.331 16.536 18.795 16.536 17.848 15.668 C 16.901 14.801 16.901 13.396 17.848 12.529 Z" style="fill: rgb(255, 86, 250);"/>
  </g>
  <g transform="matrix(0.974809110165, 0, 0, 1.44146502018, 178.882741210578, 152.037436276067)" style="transform-origin: 66.0561px 12.5448px;">
    <g/>
    <g transform="matrix(0.933334, 0, 0, 0.933333, 0.066666, 1.333333)">
      <g>
        <path d="M19.5,12c0.93,0,1.78,0.28,2.5,0.76V8c0-1.1-0.9-2-2-2h-6.29l-1.06-1.06l1.41-1.41l-0.71-0.71L9.82,6.35l0.71,0.71 l1.41-1.41L13,6.71V9c0,1.1-0.9,2-2,2h-0.54c0.95,1.06,1.54,2.46,1.54,4c0,0.34-0.04,0.67-0.09,1h3.14 C15.3,13.75,17.19,12,19.5,12z" style="fill: rgb(171, 106, 42);"/>
        <path d="M19.5,13c-1.93,0-3.5,1.57-3.5,3.5s1.57,3.5,3.5,3.5s3.5-1.57,3.5-3.5S21.43,13,19.5,13z M19.5,18 c-0.83,0-1.5-0.67-1.5-1.5s0.67-1.5,1.5-1.5s1.5,0.67,1.5,1.5S20.33,18,19.5,18z" style=""/>
        <path d="M4,9h5c0-1.1-0.9-2-2-2H4C3.45,7,3,7.45,3,8C3,8.55,3.45,9,4,9z" style="fill: rgb(179, 179, 179);"/>
        <path d="M9.83,13.82l-0.18-0.47L10.58,13c-0.46-1.06-1.28-1.91-2.31-2.43l-0.4,0.89l-0.46-0.21l0.4-0.9C7.26,10.13,6.64,10,6,10 c-0.53,0-1.04,0.11-1.52,0.26l0.34,0.91l-0.47,0.18L4,10.42c-1.06,0.46-1.91,1.28-2.43,2.31l0.89,0.4l-0.21,0.46l-0.9-0.4 C1.13,13.74,1,14.36,1,15c0,0.53,0.11,1.04,0.26,1.52l0.91-0.34l0.18,0.47L1.42,17c0.46,1.06,1.28,1.91,2.31,2.43l0.4-0.89 l0.46,0.21l-0.4,0.9C4.74,19.87,5.36,20,6,20c0.53,0,1.04-0.11,1.52-0.26l-0.34-0.91l0.47-0.18L8,19.58 c1.06-0.46,1.91-1.28,2.43-2.31l-0.89-0.4l0.21-0.46l0.9,0.4C10.87,16.26,11,15.64,11,15c0-0.53-0.11-1.04-0.26-1.52L9.83,13.82z M7.15,17.77c-1.53,0.63-3.29-0.09-3.92-1.62c-0.63-1.53,0.09-3.29,1.62-3.92c1.53-0.63,3.29,0.09,3.92,1.62 C9.41,15.38,8.68,17.14,7.15,17.77z" style=""/>
      </g>
    </g>
  </g>
  <g transform="matrix(0.938253104687, 0, 0, 1.114395976067, 213.729169091574, 150.743887938982)" style="transform-origin: 31.2096px 13.8383px;">
    <path d="M 16.524 6.37 L 16.524 8.296 C 18.023 8.296 19.238 9.589 19.238 11.185 L 19.238 21.777 C 19.238 22.309 18.833 22.74 18.334 22.74 L 5.666 22.74 C 5.167 22.74 4.762 22.309 4.762 21.777 L 4.762 11.185 C 4.762 9.589 5.977 8.296 7.476 8.296 L 7.476 6.37 L 16.524 6.37 Z M 12.905 12.148 L 11.096 12.148 L 11.096 14.074 L 9.286 14.074 L 9.286 16 L 11.095 16 L 11.096 17.925 L 12.905 17.925 L 12.904 16 L 14.714 16 L 14.714 14.074 L 12.905 14.074 L 12.905 12.148 Z M 18.334 3.481 L 18.334 5.407 L 5.666 5.407 L 5.666 3.481 L 18.334 3.481 Z" style="fill: rgb(255, 255, 255);"/>
  </g>
  <rect style="fill: rgb(194, 224, 245); stroke: rgb(0, 0, 0);" x="211" y="190" width="70" height="22.929" rx="5" ry="5" transform="matrix(1, 0, 0, 1, 7.105427357601002e-15, 7.105427357601002e-15)"/>
  <text style="fill: rgb(51, 51, 51); font-family: Comfortaa; font-size: 18.6px; font-weight: 700; white-space: pre;" transform="matrix(0.3773419857025147, 0, 0, 0.5842939615249634, 147.49067687988284, 16.319169998168952)" x="189.508" y="321.986">Ver productos...</text>
</svg>