<?xml version="1.0" encoding="utf-8"?>
<svg viewBox="-1.9893 0 501.9893 258.7" xmlns="http://www.w3.org/2000/svg">
  <rect width="500" height="258.7" style="fill: rgb(255, 248, 232); stroke: rgb(255, 248, 232);"/>
  <g transform="matrix(0.13506700098514557, 0, 0, 0.13506700098514557, 67.63925933837893, 34.482757568359375)">
    <g transform="matrix(0.685185, 0, 0, 0.592592, -1278.318115, -964.818359)" style="">
      <path d="M 1113.286 2017.529 L 2438.886 2017.529 L 2438.886 3343.129 L 1113.286 3343.129 L 1113.286 2017.529 Z" stop-color="#000000" stroke-linecap="round" stroke-linejoin="round" stroke-width=".7" style="fill: rgba(255, 195, 87, 0);"/>
      <path d="M 1726.986 2304.029 C 1708.704 2304.389 1687.574 2317.124 1683.686 2321.749 L 1682.798 2322.606 C 1658.897 2346.235 1658.897 2384.847 1682.798 2408.476 L 1785.138 2509.676 C 1787.56 2512.071 1791.454 2512.071 1793.876 2509.676 L 1896.266 2408.476 C 1920.167 2384.847 1920.167 2346.235 1896.266 2322.606 L 1895.368 2321.749 C 1871.467 2298.12 1832.628 2298.12 1808.727 2321.749 L 1789.507 2340.733 L 1770.331 2321.749 C 1758.38 2309.935 1742.674 2304.029 1726.989 2304.029 L 1726.986 2304.029 Z M 1847.366 2316.62 C 1846.587 2316.701 1845.808 2316.781 1845.032 2316.9 C 1844.257 2317 1843.492 2317.139 1842.719 2317.284 C 1841.948 2317.425 1841.181 2317.602 1840.417 2317.787 C 1839.652 2317.968 1838.893 2318.164 1838.136 2318.387 C 1837.38 2318.61 1836.623 2318.858 1835.877 2319.114 C 1835.13 2319.373 1834.386 2319.641 1833.65 2319.939 C 1835.125 2319.349 1836.624 2318.832 1838.136 2318.387 C 1839.648 2317.944 1841.179 2317.578 1842.719 2317.286 C 1844.258 2316.988 1845.808 2316.771 1847.366 2316.622 L 1847.366 2316.62 Z M 1856.735 2316.62 C 1858.292 2316.761 1859.841 2316.988 1861.381 2317.284 C 1862.921 2317.578 1864.452 2317.944 1865.964 2318.385 C 1867.474 2318.828 1868.979 2319.345 1870.45 2319.937 C 1869.714 2319.643 1868.971 2319.371 1868.223 2319.112 C 1867.477 2318.852 1866.718 2318.604 1865.964 2318.385 C 1864.453 2317.942 1862.922 2317.576 1861.381 2317.284 C 1859.842 2316.988 1858.293 2316.769 1856.735 2316.62 L 1856.735 2316.62 Z M 1708.605 2319.95 C 1707.87 2320.244 1707.143 2320.56 1706.42 2320.892 C 1705.698 2321.222 1704.977 2321.57 1704.268 2321.942 C 1705.687 2321.204 1707.134 2320.538 1708.605 2319.95 Z M 1745.394 2319.95 C 1746.865 2320.538 1748.312 2321.206 1749.73 2321.942 C 1748.307 2321.206 1746.867 2320.538 1745.394 2319.95 Z M 1691.538 2331.46 L 1691.549 2331.46 C 1691.428 2331.581 1691.313 2331.706 1691.194 2331.824 C 1691.315 2331.704 1691.42 2331.579 1691.535 2331.46 L 1691.538 2331.46 Z M 1688.583 2334.672 C 1688.277 2335.036 1687.969 2335.403 1687.673 2335.773 C 1687.969 2335.403 1688.275 2335.036 1688.583 2334.672 Z M 1682.801 2343.152 C 1681.682 2345.252 1680.727 2347.422 1679.942 2349.63 C 1680.729 2347.423 1681.681 2345.252 1682.801 2343.152 Z M 1679.214 2351.846 C 1678.54 2354.081 1678.041 2356.354 1677.703 2358.645 C 1677.477 2360.173 1677.328 2361.71 1677.254 2363.249 C 1677.335 2361.712 1677.481 2360.173 1677.703 2358.645 C 1678.037 2356.354 1678.542 2354.08 1679.214 2351.846 Z M 1677.264 2368.024 C 1677.304 2368.743 1677.344 2369.461 1677.425 2370.176 C 1677.506 2370.943 1677.586 2371.704 1677.703 2372.468 C 1677.928 2373.993 1678.228 2375.524 1678.602 2377.029 C 1678.784 2377.782 1678.989 2378.52 1679.214 2379.267 C 1678.54 2377.032 1678.041 2374.759 1677.703 2372.468 C 1677.485 2370.993 1677.341 2369.509 1677.264 2368.024 Z M 1680.787 2383.688 C 1681.385 2385.141 1682.055 2386.56 1682.799 2387.96 C 1682.053 2386.564 1681.38 2385.134 1680.787 2383.688 Z M 1687.842 2395.562 C 1688.05 2395.816 1688.255 2396.059 1688.464 2396.313 C 1688.255 2396.063 1688.046 2395.816 1687.842 2395.562 Z M 1683.485 2499.232 L 1683.485 2499.243 C 1683.324 2499.233 1683.157 2499.263 1683.024 2499.324 C 1680.39 2500.842 1682.943 2516.79 1685.551 2530.717 C 1685.76 2530.51 1685.978 2530.319 1686.195 2530.117 C 1686.769 2529.588 1687.36 2529.085 1687.984 2528.608 C 1689.53 2527.416 1691.241 2526.386 1693.124 2525.546 C 1695.381 2524.539 1697.662 2523.788 1699.955 2523.265 C 1700.937 2523.04 1701.925 2522.863 1702.91 2522.72 C 1701.926 2522.861 1700.935 2523.04 1699.955 2523.265 C 1697.663 2523.788 1695.381 2524.547 1693.124 2525.556 C 1691.242 2526.397 1689.534 2527.418 1687.984 2528.608 C 1687.364 2529.085 1686.765 2529.59 1686.195 2530.117 C 1679.062 2536.701 1675.704 2547.092 1674.043 2558.095 C 1671.916 2572.178 1672.489 2588.558 1674.043 2604.382 C 1676.672 2631.188 1682.256 2656.245 1683.915 2663.346 C 1676.277 2677.692 1669.59 2692.63 1664.225 2707.855 C 1654.544 2735.328 1644.985 2790.387 1635.423 2858.975 C 1625.861 2927.563 1616.566 3009.155 1608.398 3087.525 C 1596.921 3197.635 1588.45 3292.735 1584.114 3343.065 L 1599.445 3343.065 L 1599.445 3343.076 L 1952.675 3343.076 L 1952.675 3343.065 L 1968.049 3343.065 C 1963.67 3307.613 1957.554 3255.251 1952.149 3196.965 C 1947.479 3146.611 1943.536 3093.575 1942.213 3047.875 C 1940.887 3002.185 1942.438 2963.45 1947.716 2943.725 C 1955.71 2913.931 1971.184 2885.157 1985.405 2857.19 C 1999.625 2829.223 2012.762 2802.041 2014.646 2774.306 C 2015.816 2757.1 2011.811 2744.28 2004.153 2735.91 C 1996.497 2727.541 1986.033 2724.258 1976.336 2723.329 C 1964.167 2722.16 1959.662 2724.632 1952.534 2726.499 C 1954.869 2721.612 1956.411 2720.57 1958.092 2712.269 C 1961.338 2696.239 1960.134 2674.447 1943.113 2655.747 C 1925.74 2636.659 1902.595 2636.506 1885.681 2641.228 C 1880.244 2642.744 1880.477 2643.7 1876.226 2645.693 C 1879.916 2638.453 1881.841 2636.633 1885.498 2625.435 C 1889.097 2614.414 1891.832 2602.261 1891.548 2590.251 C 1891.274 2578.639 1887.95 2566.859 1879.417 2557.787 C 1886.792 2544.689 1896.3 2527.21 1894.053 2524.681 C 1893.872 2524.456 1893.519 2524.363 1893.058 2524.393 C 1888.511 2524.667 1872.126 2536.469 1861.472 2544.49 C 1852.651 2540.089 1843.12 2537.927 1833.366 2537.82 C 1829.565 2537.78 1825.731 2538.047 1821.888 2538.613 C 1804.809 2541.13 1787.49 2549.13 1770.622 2560.884 C 1766.318 2555.774 1758.847 2547.556 1749.582 2540.027 C 1742.168 2534.001 1733.516 2528.285 1723.928 2524.983 L 1723.918 2524.983 C 1717.343 2522.721 1710.155 2521.661 1702.964 2522.702 C 1703.186 2522.662 1703.397 2522.642 1703.619 2522.601 C 1695.958 2511.79 1686.526 2499.357 1683.491 2499.217 L 1683.485 2499.232 Z M 1696.44 2541.514 L 1696.451 2541.514 C 1696.27 2541.695 1696.079 2541.903 1695.894 2542.114 C 1696.075 2541.907 1696.254 2541.701 1696.439 2541.514 L 1696.44 2541.514 Z M 1695.478 2542.605 C 1695.317 2542.822 1695.136 2543.044 1694.965 2543.281 C 1695.126 2543.046 1695.303 2542.82 1695.478 2542.605 Z M 1694.921 2543.346 C 1694.76 2543.583 1694.585 2543.831 1694.418 2544.086 C 1694.579 2543.829 1694.748 2543.585 1694.921 2543.346 Z M 1693.411 2545.808 C 1693.27 2546.088 1693.115 2546.378 1692.973 2546.674 C 1693.113 2546.378 1693.26 2546.088 1693.411 2545.808 Z M 1692.157 2548.485 C 1691.996 2548.916 1691.821 2549.363 1691.654 2549.824 C 1691.815 2549.363 1691.982 2548.918 1692.157 2548.485 Z M 1871.507 2550.755 C 1871.99 2551.119 1872.465 2551.487 1872.942 2551.866 C 1872.467 2551.485 1871.99 2551.117 1871.507 2550.755 Z M 1873.616 2552.405 C 1874.26 2552.933 1874.892 2553.486 1875.522 2554.043 C 1874.892 2553.484 1874.26 2552.935 1873.616 2552.405 Z M 1833.272 2552.993 C 1834.714 2552.993 1836.13 2553.053 1837.534 2553.174 C 1836.129 2553.073 1834.715 2552.993 1833.272 2552.993 L 1833.272 2552.993 Z M 1833.272 2552.993 L 1833.272 2553.004 C 1831.878 2553.004 1830.46 2553.064 1829.032 2553.165 C 1830.461 2553.064 1831.88 2552.984 1833.272 2552.984 L 1833.272 2552.993 Z M 1828.465 2553.22 C 1827.032 2553.341 1825.585 2553.5 1824.118 2553.713 C 1816.814 2554.788 1809.099 2557.192 1801.173 2560.791 C 1809.1 2557.19 1816.814 2554.779 1824.118 2553.703 C 1825.585 2553.485 1827.033 2553.338 1828.465 2553.222 L 1828.465 2553.22 Z M 1838.358 2553.24 C 1839.737 2553.361 1841.094 2553.558 1842.438 2553.808 C 1841.094 2553.558 1839.737 2553.373 1838.358 2553.24 Z M 1690.568 2553.28 C 1690.427 2553.794 1690.289 2554.323 1690.164 2554.864 C 1690.285 2554.323 1690.433 2553.796 1690.568 2553.28 Z M 1843.558 2554.051 C 1844.007 2554.152 1844.46 2554.232 1844.907 2554.341 C 1844.462 2554.24 1844.005 2554.16 1843.558 2554.051 Z M 1876.247 2554.705 C 1876.944 2555.339 1877.634 2555.991 1878.313 2556.666 C 1877.635 2555.993 1876.939 2555.339 1876.247 2554.705 Z M 1847.188 2554.963 C 1847.649 2555.104 1848.104 2555.251 1848.559 2555.402 C 1848.102 2555.261 1847.651 2555.102 1847.188 2554.963 Z M 1690.028 2555.424 C 1689.928 2555.899 1689.819 2556.374 1689.72 2556.871 C 1689.821 2556.378 1689.928 2555.899 1690.028 2555.424 Z M 1849.588 2555.754 C 1850.045 2555.915 1850.494 2556.098 1850.949 2556.277 C 1850.498 2556.096 1850.043 2555.921 1849.588 2555.754 Z M 1852.116 2556.76 C 1852.506 2556.921 1852.894 2557.1 1853.283 2557.284 C 1852.894 2557.102 1852.508 2556.929 1852.116 2556.76 Z M 1854.503 2557.895 C 1854.897 2558.103 1855.302 2558.282 1855.692 2558.495 C 1855.302 2558.28 1854.897 2558.097 1854.503 2557.895 Z M 1689.453 2558.205 C 1689.332 2558.91 1689.211 2559.636 1689.098 2560.379 C 1688.885 2561.794 1688.694 2563.251 1688.541 2564.758 C 1688.682 2563.255 1688.873 2561.788 1689.084 2560.379 C 1689.185 2559.634 1689.322 2558.91 1689.449 2558.205 L 1689.453 2558.205 Z M 1857.823 2559.735 C 1858.211 2559.974 1858.602 2560.23 1858.99 2560.486 C 1858.604 2560.232 1858.213 2559.976 1857.823 2559.735 Z M 1860.146 2561.256 C 1860.538 2561.53 1860.933 2561.814 1861.325 2562.104 C 1860.935 2561.814 1860.542 2561.532 1860.146 2561.256 Z M 1797.767 2562.412 C 1793.206 2564.662 1788.583 2567.292 1783.944 2570.282 C 1788.583 2567.291 1793.206 2564.663 1797.767 2562.412 Z M 1862.202 2562.766 C 1862.669 2563.122 1863.132 2563.488 1863.594 2563.867 C 1863.134 2563.486 1862.671 2563.122 1862.202 2562.766 Z M 1864.696 2564.811 C 1864.994 2565.073 1865.298 2565.33 1865.594 2565.604 C 1865.298 2565.332 1864.992 2565.073 1864.696 2564.811 Z M 1755.656 2566.974 C 1756.075 2567.441 1756.471 2567.884 1756.856 2568.322 C 1757.063 2568.556 1757.275 2568.797 1757.468 2569.019 C 1757.287 2568.793 1757.063 2568.554 1756.856 2568.322 C 1756.482 2567.894 1756.065 2567.429 1755.656 2566.974 Z M 1867.066 2566.994 C 1867.306 2567.225 1867.545 2567.433 1867.783 2567.668 L 1867.783 2567.679 C 1867.543 2567.44 1867.306 2567.226 1867.066 2566.995 L 1867.066 2566.994 Z M 1687.946 2575.11 C 1687.906 2576.853 1687.906 2578.632 1687.906 2580.431 C 1687.921 2582.244 1687.966 2584.078 1688.027 2585.935 C 1688.087 2587.746 1688.168 2589.58 1688.275 2591.417 C 1688.174 2589.575 1688.094 2587.748 1688.027 2585.935 C 1687.967 2584.077 1687.927 2582.245 1687.906 2580.431 C 1687.892 2578.628 1687.896 2576.855 1687.946 2575.11 Z M 1688.301 2591.717 C 1688.361 2592.651 1688.421 2593.583 1688.482 2594.522 C 1688.522 2595.22 1688.582 2595.923 1688.623 2596.621 C 1688.502 2594.984 1688.385 2593.344 1688.293 2591.717 L 1688.301 2591.717 Z M 1688.848 2599.265 C 1688.888 2599.78 1688.929 2600.29 1688.989 2600.805 C 1689.049 2601.503 1689.13 2602.206 1689.196 2602.903 C 1689.277 2603.803 1689.377 2604.697 1689.476 2605.591 C 1689.375 2604.693 1689.269 2603.802 1689.186 2602.903 C 1689.126 2602.207 1689.065 2601.503 1689.005 2600.805 C 1688.965 2600.292 1688.904 2599.776 1688.864 2599.265 L 1688.848 2599.265 Z M 1689.492 2605.871 C 1689.673 2607.6 1689.882 2609.323 1690.09 2611.033 C 1689.882 2609.322 1689.675 2607.605 1689.492 2605.871 Z M 1690.971 2617.831 C 1691.432 2621.125 1691.915 2624.35 1692.416 2627.446 C 1693.37 2633.358 1694.367 2638.832 1695.297 2643.603 C 1694.371 2638.84 1693.367 2633.348 1692.416 2627.446 C 1691.915 2624.343 1691.43 2621.133 1690.971 2617.831 Z M 1905.711 2653.646 C 1906.609 2653.666 1907.513 2653.727 1908.409 2653.807 C 1906.614 2653.646 1904.815 2653.6 1903.023 2653.687 C 1903.921 2653.647 1904.815 2653.627 1905.711 2653.647 L 1905.711 2653.646 Z M 1900.347 2653.862 C 1898.559 2654.043 1896.778 2654.315 1895.015 2654.667 C 1896.778 2654.317 1898.561 2654.041 1900.347 2653.862 Z M 1913.774 2654.731 C 1919.12 2656.09 1924.381 2658.833 1929.374 2663.543 C 1924.382 2658.836 1919.118 2656.09 1913.774 2654.731 Z M 1938.089 2674.411 C 1938.644 2675.339 1939.159 2676.267 1939.628 2677.195 C 1939.334 2676.617 1938.99 2676.048 1938.666 2675.472 C 1938.459 2675.122 1938.3 2674.766 1938.089 2674.412 L 1938.089 2674.411 Z M 1934.598 2731.405 C 1933.98 2732.39 1933.595 2733.503 1933.473 2734.66 C 1933.595 2733.503 1933.98 2732.39 1934.598 2731.405 Z M 1933.527 2735.848 C 1933.541 2736.617 1933.671 2737.378 1933.912 2738.108 C 1933.671 2737.378 1933.541 2736.617 1933.527 2735.848 Z M 1958.485 2739.264 C 1955.099 2739.784 1952.022 2740.446 1949.556 2741.052 C 1952.022 2740.444 1955.099 2739.782 1958.485 2739.264 Z M 1934.501 2739.304 C 1934.863 2739.923 1935.31 2740.489 1935.83 2740.983 C 1935.31 2740.489 1934.863 2739.923 1934.501 2739.304 Z M 1980.188 2739.405 C 1981.887 2739.787 1983.503 2740.284 1985.028 2740.902 C 1988.077 2742.144 1990.754 2743.889 1992.919 2746.256 L 1992.919 2746.267 C 1993.457 2746.856 1993.984 2747.49 1994.481 2748.183 C 1993.986 2747.49 1993.455 2746.864 1992.919 2746.277 L 1992.919 2746.266 C 1990.754 2743.899 1988.077 2742.146 1985.028 2740.902 C 1983.504 2740.28 1981.887 2739.789 1980.188 2739.404 L 1980.188 2739.405 Z M 1936.878 2741.867 C 1937.529 2742.271 1938.236 2742.574 1938.977 2742.767 C 1938.236 2742.574 1937.529 2742.271 1936.878 2741.867 Z M 1943.527 2742.767 C 1942.415 2743.139 1941.231 2743.249 1940.069 2743.089 C 1941.231 2743.249 1942.415 2743.139 1943.527 2742.767 Z M 1994.482 2748.195 C 1994.542 2748.276 1994.603 2748.377 1994.663 2748.483 C 1994.623 2748.423 1994.582 2748.363 1994.543 2748.302 C 1994.523 2748.262 1994.503 2748.221 1994.483 2748.202 L 1994.482 2748.195 Z M 1997.031 2752.853 C 1997.071 2752.934 1997.112 2752.994 1997.132 2753.081 C 1997.114 2753.041 1997.092 2753 1997.072 2752.96 C 1997.057 2752.92 1997.052 2752.9 1997.032 2752.859 L 1997.031 2752.853 Z M 1999.429 2773.303 C 1999.222 2776.241 1998.864 2779.213 1998.359 2782.222 C 1998.864 2779.212 1999.23 2776.241 1999.429 2773.303 Z" fill="#f89a41"/>
      <path d="M 1802.686 2542.229 L 1802.686 2542.24 C 1799.676 2542.24 1796.589 2542.49 1793.417 2542.956 C 1776.495 2545.45 1757.374 2554.986 1738.565 2569.904 C 1700.947 2599.74 1664.759 2650.758 1645.879 2704.334 C 1637.211 2728.931 1627.105 2785.299 1617.455 2854.524 C 1607.804 2923.746 1598.352 3006.374 1590.083 3085.704 C 1577.915 3202.454 1569.573 3297.324 1565.674 3343.084 L 1923.734 3343.084 C 1919.658 3310.448 1913.594 3258.906 1907.801 3196.434 C 1903.049 3145.196 1899.022 3091.174 1897.664 3044.314 C 1896.305 2997.459 1897.369 2958.207 1903.785 2934.304 C 1912.528 2901.711 1928.852 2871.7 1943.139 2843.604 C 1957.425 2815.508 1969.489 2789.342 1971.108 2765.515 C 1972.103 2750.852 1968.898 2742.908 1964.509 2738.111 C 1960.119 2733.313 1953.681 2731.023 1946.221 2730.308 C 1931.3 2728.88 1914.443 2734.562 1914.443 2734.562 C 1908.84 2736.55 1903.188 2731.721 1904.27 2725.869 C 1904.455 2724.867 1904.836 2723.912 1905.391 2723.058 C 1905.391 2723.058 1911.404 2713.768 1914.063 2700.635 C 1916.722 2687.503 1916.197 2671.757 1902.602 2656.821 C 1889.365 2642.277 1873.972 2642.643 1859.96 2646.554 C 1845.948 2650.465 1835.16 2658.286 1835.16 2658.286 C 1830.402 2661.853 1823.57 2658.926 1822.863 2653.018 C 1822.653 2651.261 1823.051 2649.485 1823.992 2647.986 C 1823.992 2647.986 1834.346 2631.116 1840.955 2610.879 C 1844.26 2600.761 1846.541 2589.896 1846.316 2580.381 C 1846.094 2570.866 1843.627 2563.044 1837.677 2557.101 C 1827.278 2546.714 1815.729 2542.205 1802.687 2542.221 L 1802.686 2542.229 Z" fill="#fff"/>
      <path d="M 1690.386 2800.029 C 1689.464 2800.012 1688.556 2800.029 1687.64 2800.073 C 1663.228 2801.045 1635.952 2820.162 1618.31 2834.445 L 1617.453 2835.14 L 1617.325 2836.214 C 1616.466 2842.105 1615.597 2847.98 1614.741 2854.1 C 1605.084 2923.375 1595.618 3006.01 1587.348 3085.36 C 1575.156 3202.34 1566.814 3297.37 1562.928 3343.04 L 1568.529 3343.04 C 1572.352 3298.014 1580.613 3203.56 1592.873 3085.94 C 1601.139 3006.626 1610.581 2924.04 1620.223 2854.87 C 1621.018 2849.169 1621.837 2843.691 1622.643 2838.178 C 1639.978 2824.246 1666.58 2806.499 1687.871 2805.651 C 1688.675 2805.607 1689.473 2805.587 1690.247 2805.607 C 1695.784 2805.712 1700.876 2806.993 1705.431 2809.786 C 1714.09 2815.093 1718.712 2821.772 1721.266 2829.235 C 1723.82 2836.697 1724.215 2845.011 1723.892 2853.112 C 1723.57 2861.213 1722.525 2869.073 1722.536 2875.839 C 1722.536 2882.605 1723.6 2888.785 1728.527 2892.238 C 1731.215 2894.121 1734.563 2894.209 1737.708 2893.312 C 1740.854 2892.415 1744.091 2890.663 1747.52 2888.385 C 1754.379 2883.828 1762.11 2877.182 1770.322 2870.911 C 1778.536 2864.639 1787.192 2858.769 1795.469 2855.771 C 1803.747 2852.772 1811.359 2852.485 1818.608 2857.04 C 1833.778 2866.576 1837.181 2881.296 1838.003 2895.189 C 1838.414 2902.136 1838.131 2908.795 1838.298 2914.312 C 1838.381 2917.071 1838.548 2919.522 1839.079 2921.736 C 1839.612 2923.95 1840.533 2926.075 1842.4 2927.477 C 1844.395 2928.977 1847.097 2928.844 1849.162 2927.966 C 1851.226 2927.092 1853.138 2925.602 1855.196 2923.82 C 1859.311 2920.255 1863.994 2915.287 1869.262 2910.612 C 1874.53 2905.936 1880.341 2901.601 1886.453 2899.336 C 1892.566 2897.071 1898.844 2896.734 1905.859 2899.987 C 1907.216 2900.617 1909.125 2902.461 1911.025 2904.459 C 1907.237 2913.922 1903.769 2923.578 1901.095 2933.546 C 1894.504 2958.109 1893.536 2997.404 1894.898 3044.346 C 1896.258 3091.299 1900.323 3145.376 1905.078 3196.646 C 1911.074 3261.307 1917.072 3311.586 1921.043 3343.036 L 1926.567 3343.036 C 1922.548 3311.061 1916.521 3260.298 1910.569 3196.116 C 1905.821 3144.913 1901.787 3090.936 1900.432 3044.186 C 1899.075 2997.418 1900.221 2958.232 1906.466 2934.996 C 1909.24 2924.657 1912.817 2914.567 1916.842 2904.683 L 1917.504 2903.12 L 1916.397 2901.807 C 1913.749 2898.737 1911.104 2896.309 1908.192 2894.958 C 1899.838 2891.083 1891.692 2891.477 1884.522 2894.133 C 1877.352 2896.791 1871.081 2901.595 1865.572 2906.484 C 1860.063 2911.374 1855.272 2916.415 1851.539 2919.649 C 1849.672 2921.266 1848.04 2922.407 1846.992 2922.851 C 1845.944 2923.294 1845.974 2923.218 1845.722 2923.024 C 1845.339 2922.739 1844.856 2922.012 1844.485 2920.474 C 1844.112 2918.936 1843.907 2916.744 1843.833 2914.157 C 1843.689 2908.983 1843.983 2902.191 1843.539 2894.882 C 1842.674 2880.264 1838.614 2863.107 1821.55 2852.381 C 1812.682 2846.807 1802.851 2847.179 1793.581 2850.536 C 1784.311 2853.894 1775.332 2860.097 1766.958 2866.49 C 1758.584 2872.884 1750.816 2879.53 1744.438 2883.768 C 1741.249 2885.887 1738.376 2887.366 1736.189 2887.99 C 1734.002 2888.614 1732.777 2888.441 1731.718 2887.697 C 1729.149 2885.897 1728.125 2881.984 1728.115 2875.802 C 1728.115 2869.621 1729.092 2861.737 1729.428 2853.325 C 1729.761 2844.913 1729.428 2835.927 1726.508 2827.44 C 1723.604 2818.953 1718.047 2810.999 1708.34 2805.05 C 1703.678 2802.193 1698.404 2801.287 1693.08 2800.818 L 1693.08 2800.123 L 1690.386 2800.029 Z" color="#000000" fill-opacity="0" style="-inkscape-stroke:none"/>
      <path d="M 1964.486 2738.129 C 1978.445 2777.634 1908.38 2872.799 1878.973 2925.849 C 1855.37 2968.428 1875.621 3191.449 1888.849 3343.089 L 1923.699 3343.089 C 1919.624 3310.455 1913.56 3258.911 1907.766 3196.439 C 1903.015 3145.201 1898.987 3091.179 1897.629 3044.319 C 1896.27 2997.464 1897.335 2958.212 1903.75 2934.309 C 1912.493 2901.716 1928.817 2871.705 1943.104 2843.609 C 1957.39 2815.513 1969.454 2789.347 1971.073 2765.52 C 1972.068 2750.868 1968.869 2742.925 1964.485 2738.126 L 1964.486 2738.129 Z" fill="#d2d2d2"/>
      <path d="M 1691.886 2513.829 C 1682.162 2510.482 1671.128 2509.727 1660.668 2514.396 C 1648.462 2519.843 1643.483 2533.107 1641.327 2547.383 C 1639.17 2561.659 1639.751 2578.258 1641.327 2594.298 C 1644.472 2626.377 1651.846 2656.272 1651.846 2656.272 C 1652.863 2660.422 1657.052 2662.958 1661.196 2661.934 C 1665.341 2660.915 1667.874 2656.722 1666.851 2652.574 C 1666.851 2652.574 1659.678 2623.45 1656.671 2592.789 C 1655.167 2577.458 1654.777 2561.743 1656.587 2549.686 C 1658.406 2537.63 1662.366 2530.543 1666.918 2528.512 C 1673.216 2525.701 1679.698 2526.008 1686.862 2528.47 C 1694.028 2530.936 1701.544 2535.696 1708.164 2541.076 C 1721.406 2551.837 1730.899 2564.552 1730.899 2564.552 C 1733.446 2567.987 1738.296 2568.698 1741.72 2566.137 C 1745.151 2563.587 1745.861 2558.733 1743.304 2555.305 C 1743.304 2555.305 1732.929 2541.293 1717.892 2529.074 C 1710.374 2522.965 1701.6 2517.172 1691.877 2513.826 L 1691.886 2513.829 Z" color="#000000" stroke-linecap="round" stroke-linejoin="round" style="-inkscape-stroke:none" fill="#1f1f2e"/>
      <path d="M 1650.886 2487.729 C 1650.718 2487.719 1650.548 2487.746 1650.415 2487.813 C 1647.745 2489.352 1650.331 2505.521 1652.979 2519.639 C 1655.154 2517.491 1657.685 2515.709 1660.65 2514.386 C 1664.156 2512.822 1667.73 2511.873 1671.294 2511.42 C 1663.529 2500.462 1653.962 2487.854 1650.884 2487.713 L 1650.886 2487.729 Z" fill="#1f1f2e"/>
      <path d="M 1863.286 2513.229 C 1858.674 2513.504 1842.054 2525.479 1831.254 2533.611 C 1837.419 2536.687 1843.248 2540.817 1848.571 2546.134 C 1848.877 2546.441 1849.165 2546.76 1849.457 2547.075 C 1856.933 2533.799 1866.568 2516.085 1864.29 2513.521 C 1864.101 2513.294 1863.75 2513.204 1863.282 2513.231 L 1863.286 2513.229 Z" fill="#1f1f2e"/>
      <path d="M 1676.486 2526.529 C 1673.182 2526.487 1669.988 2527.121 1666.839 2528.526 C 1662.288 2530.557 1658.325 2537.641 1656.504 2549.697 C 1654.687 2561.753 1655.082 2577.477 1656.588 2592.807 C 1658.09 2608.129 1660.636 2623.059 1662.803 2634.169 C 1681.132 2604.659 1703.342 2578.713 1726.806 2559.622 C 1722.82 2554.933 1716.164 2547.666 1708.082 2541.098 C 1701.461 2535.718 1693.949 2530.952 1686.784 2528.486 C 1683.201 2527.253 1679.792 2526.562 1676.489 2526.529 L 1676.486 2526.529 Z" fill="#fff"/>
      <path d="M 1690.286 2802.829 C 1689.437 2802.812 1688.574 2802.829 1687.713 2802.873 C 1664.715 2803.789 1637.497 2822.479 1620.021 2836.627 C 1619.162 2842.52 1618.291 2848.374 1617.439 2854.481 C 1607.788 2923.703 1598.336 3006.341 1590.067 3085.681 C 1577.899 3202.421 1569.556 3297.291 1565.658 3343.051 L 1923.728 3343.051 C 1919.711 3311.042 1913.718 3260.381 1907.785 3196.401 C 1903.033 3145.163 1899.005 3091.151 1897.648 3044.291 C 1896.288 2997.436 1897.353 2958.173 1903.768 2934.271 C 1906.579 2923.794 1910.184 2913.598 1914.242 2903.632 C 1911.73 2900.719 1909.288 2898.549 1907.004 2897.489 C 1876.268 2883.231 1860.057 2906.363 1851.061 2899.609 C 1842.065 2892.855 1852.281 2874.978 1820.047 2854.716 C 1787.812 2834.454 1757.894 2869.902 1742.901 2859.397 C 1727.909 2848.891 1743.58 2829.942 1706.848 2807.429 C 1701.825 2804.351 1696.224 2802.955 1690.286 2802.838 L 1690.286 2802.829 Z" fill="#ffa046"/>
      <path d="M 1821.686 2302.429 C 1809.007 2302.429 1796.323 2307.217 1786.63 2316.799 L 1762.72 2340.427 C 1760.265 2342.851 1756.318 2342.851 1753.864 2340.427 L 1729.987 2316.799 C 1720.294 2307.217 1707.59 2302.44 1694.909 2302.44 C 1682.229 2302.44 1669.578 2307.217 1659.886 2316.799 L 1658.985 2317.7 C 1639.6 2336.864 1639.601 2367.66 1658.985 2386.824 L 1758.291 2484.981 L 1857.642 2386.824 C 1877.027 2367.66 1877.027 2336.864 1857.642 2317.7 L 1856.741 2316.799 C 1847.049 2307.217 1834.365 2302.429 1821.685 2302.429 L 1821.686 2302.429 Z" color="#000000" stroke-linecap="round" stroke-linejoin="round" stroke-width=".6" style="-inkscape-stroke:none" fill="#e5384b"/>
      <path d="M 1694.986 2289.829 C 1676.455 2290.194 1655.036 2303.107 1651.095 2307.795 L 1650.192 2308.656 C 1625.965 2332.608 1625.965 2371.748 1650.192 2395.701 L 1753.932 2498.291 C 1756.387 2500.718 1760.337 2500.718 1762.792 2498.291 L 1866.572 2395.701 C 1890.799 2371.749 1890.799 2332.608 1866.572 2308.656 L 1865.669 2307.795 C 1841.441 2283.843 1802.073 2283.844 1777.845 2307.795 L 1758.36 2327.033 L 1738.917 2307.795 C 1726.803 2295.819 1710.884 2289.828 1694.985 2289.828 L 1694.986 2289.829 Z M 1694.986 2302.381 C 1707.666 2302.381 1720.366 2307.156 1730.058 2316.738 L 1753.932 2340.366 C 1756.387 2342.793 1760.337 2342.793 1762.792 2340.366 L 1786.707 2316.738 C 1806.093 2297.574 1837.425 2297.574 1856.81 2316.738 L 1857.713 2317.641 C 1877.098 2336.805 1877.098 2367.596 1857.713 2386.76 L 1758.363 2484.921 L 1659.054 2386.76 C 1639.67 2367.595 1639.669 2336.806 1659.054 2317.641 L 1659.957 2316.738 C 1669.649 2307.156 1682.308 2302.381 1694.988 2302.381 L 1694.986 2302.381 Z" color="#000000" stroke-linecap="round" stroke-linejoin="round" style="-inkscape-stroke:none" fill="#1f1f2e"/>
      <path d="M 1821.686 2302.429 C 1809.007 2302.429 1796.323 2307.217 1786.63 2316.799 L 1762.72 2340.427 C 1760.265 2342.851 1756.318 2342.851 1753.864 2340.427 L 1729.987 2316.799 C 1720.294 2307.217 1707.59 2302.44 1694.909 2302.44 C 1682.229 2302.44 1669.578 2307.217 1659.886 2316.799 L 1658.985 2317.7 C 1639.6 2336.864 1639.601 2367.66 1658.985 2386.824 L 1662.208 2390.004 C 1643.704 2370.788 1643.977 2340.652 1663.065 2321.781 L 1663.966 2320.88 C 1673.657 2311.298 1686.309 2306.521 1698.99 2306.521 C 1711.671 2306.521 1724.375 2311.298 1734.068 2320.88 C 1762.516 2352.471 1762.418 2348.839 1790.711 2320.88 C 1800.403 2311.298 1813.088 2306.51 1825.767 2306.51 C 1837.632 2306.51 1849.495 2310.699 1858.913 2319.089 C 1858.484 2318.629 1858.096 2318.146 1857.642 2317.701 L 1856.741 2316.8 C 1847.049 2307.218 1834.365 2302.43 1821.685 2302.43 L 1821.686 2302.429 Z" color="#000000" stroke-linecap="round" stroke-linejoin="round" stroke-width=".6" style="-inkscape-stroke:none" fill="#ef818d"/>
      <path d="M 1695.586 2347.429 C 1702.228 2358.595 1701.065 2371.543 1692.987 2376.348 C 1684.909 2381.153 1672.976 2375.996 1666.334 2364.83 C 1659.691 2353.664 1660.855 2340.716 1668.933 2335.911 C 1677.01 2331.106 1688.943 2336.263 1695.586 2347.429 Z" stop-color="#000000" stroke-linecap="round" stroke-linejoin="round" stroke-width=".6" fill="#ef818d"/>
      <path d="M 1716.386 2390.729 C 1720.096 2396.966 1719.446 2404.197 1714.934 2406.881 C 1710.422 2409.564 1703.758 2406.684 1700.048 2400.448 C 1696.338 2394.211 1696.988 2386.98 1701.499 2384.296 C 1706.011 2381.612 1712.676 2384.492 1716.385 2390.729 L 1716.386 2390.729 Z" stop-color="#000000" stroke-linecap="round" stroke-linejoin="round" stroke-width=".6" fill="#ef818d"/>
      <path d="M 1858.986 2319.029 C 1883.338 2349.471 1814.683 2446.999 1715.536 2442.589 L 1758.363 2484.917 L 1857.714 2386.76 C 1876.646 2368.043 1877.034 2338.26 1858.984 2319.025 L 1858.986 2319.029 Z" fill="#dc1d32"/>
      <path d="M 1897.286 2894.929 C 1890.466 2906.031 1884.028 2916.661 1878.976 2925.774 C 1855.438 2968.235 1875.59 3191.394 1888.82 3343.014 L 1923.713 3343.014 C 1919.696 3311.005 1913.703 3260.344 1907.77 3196.364 C 1903.018 3145.126 1898.99 3091.114 1897.633 3044.254 C 1896.273 2997.399 1897.338 2958.136 1903.753 2934.234 C 1906.564 2923.757 1910.169 2913.561 1914.227 2903.595 C 1911.715 2900.682 1909.273 2898.512 1906.989 2897.452 C 1903.661 2895.909 1900.429 2895.14 1897.286 2894.923 L 1897.286 2894.929 Z" fill="#f27f37"/>
      <path d="M 1724.786 2557.229 C 1719.523 2558.373 1712.915 2562.272 1704.794 2571.143 C 1684.604 2593.196 1664.431 2588.039 1655.955 2584.33 C 1656.149 2587.159 1656.394 2590 1656.671 2592.828 C 1658.172 2608.15 1660.722 2623.08 1662.89 2634.19 C 1681.219 2604.68 1703.427 2578.73 1726.892 2559.639 C 1726.263 2558.9 1725.542 2558.085 1724.786 2557.23 L 1724.786 2557.229 Z" fill="#d2d2d2"/>
      <path d="M 1908.086 2663.929 C 1908.325 2664.753 1908.519 2665.61 1908.661 2666.501 C 1914.063 2700.596 1896.347 2711.504 1905.394 2723.014 C 1905.394 2723.014 1911.406 2713.724 1914.065 2700.591 C 1916.303 2689.541 1916.249 2676.643 1908.086 2663.929 L 1908.086 2663.929 Z" fill="#d2d2d2"/>
      <path d="M 1837.686 2557.129 C 1837.686 2557.129 1845.602 2606.855 1824.001 2648.014 C 1824.001 2648.014 1834.355 2631.144 1840.964 2610.907 C 1844.268 2600.789 1846.549 2589.924 1846.325 2580.409 C 1846.103 2570.894 1843.635 2563.072 1837.686 2557.129 L 1837.686 2557.129 Z" fill="#d2d2d2"/>
      <path d="M 1640.654 3039.143 C 1611.643 3039.059 1589.598 3040.289 1589.598 3040.289 L 1574.725 3084.024 C 1574.725 3084.024 1805.332 3068.936 1755.052 3051.396 C 1726.771 3041.531 1677.953 3039.249 1640.653 3039.141 L 1640.654 3039.143 Z M 1572.165 3269.592 C 1570.891 3283.628 1569.681 3296.934 1568.676 3308.371 C 1631.236 3302.378 1706.448 3292.529 1675.54 3281.747 C 1649.966 3272.826 1607.62 3270.111 1572.163 3269.592 L 1572.165 3269.592 Z" fill="#f47e1c"/>
      <path d="M 1631.286 2828.029 C 1627.226 2830.977 1623.428 2833.922 1620.01 2836.69 C 1619.151 2842.583 1618.279 2848.437 1617.427 2854.544 C 1607.776 2923.766 1598.324 3006.404 1590.055 3085.744 C 1577.887 3202.484 1569.544 3297.354 1565.646 3343.114 L 1575.316 3343.114 C 1583.626 3221.534 1602.878 2974.904 1631.286 2828.034 L 1631.286 2828.029 Z" fill="#fbcebf"/>
      <path d="M 1675.186 2889.429 C 1670.386 2914.189 1658.329 2932.678 1648.258 2930.726 C 1638.186 2928.773 1633.912 2907.119 1638.711 2882.359 C 1643.511 2857.599 1655.568 2839.109 1665.639 2841.062 C 1675.711 2843.014 1679.985 2864.669 1675.186 2889.429 L 1675.186 2889.429 Z" stop-color="#000000" stroke-linecap="round" stroke-linejoin="round" stroke-width=".6" fill="#fbcebf"/>
      <path d="M 1651.086 2952.829 C 1654.079 2957.094 1652.336 2964.817 1647.194 2970.079 C 1642.051 2975.342 1635.455 2976.151 1632.462 2971.887 C 1629.469 2967.622 1631.211 2959.899 1636.354 2954.637 C 1641.496 2949.374 1648.092 2948.564 1651.086 2952.829 L 1651.086 2952.829 Z" stop-color="#000000" stroke-linecap="round" stroke-linejoin="round" stroke-width=".6" fill="#fbcebf"/>
      <path d="M 1760.43 2951.302 C 1751.753 2951.212 1745.866 2952.276 1744.303 2954.976 C 1737.197 2967.249 1842.129 2984.569 1897.439 3035.323 C 1896.951 3013.556 1897.033 2993.554 1898.04 2976.275 C 1870.145 2969.455 1794.247 2951.652 1760.429 2951.301 L 1760.43 2951.302 Z M 1752.336 3236.202 C 1738.355 3236.101 1729.671 3236.84 1730.247 3238.991 C 1738.4 3269.417 1873.8 3290.666 1914.212 3290.666 C 1915.31 3290.666 1916.4 3290.644 1917.486 3290.612 C 1915.88 3276.439 1914.216 3261.318 1912.469 3244.348 C 1880.661 3244.078 1793.535 3236.499 1752.337 3236.202 L 1752.336 3236.202 Z" fill="#f47e1c"/>
      <ellipse transform="matrix(0.997182, -0.075015, 0.075015, 0.997182, -211.114308, 14.729051)" cx="1708.2" cy="3275.9" rx="73.174" ry="16.123" stop-color="#000000" fill="#f47e1c"/>
      <path d="M 1802.786 2526.829 C 1798.932 2526.785 1795.046 2527.058 1791.152 2527.632 C 1770.38 2530.694 1749.242 2541.683 1728.985 2557.75 C 1688.472 2589.882 1651.239 2642.712 1631.339 2699.18 C 1621.525 2727.028 1611.836 2782.839 1602.144 2852.36 C 1592.451 2921.884 1583.019 3004.6 1574.74 3084.03 C 1563.106 3195.65 1554.53 3292.04 1550.135 3343.05 L 1565.655 3343.05 C 1570.101 3291.37 1578.614 3195.74 1590.086 3085.67 C 1598.354 3006.336 1607.807 2923.71 1617.458 2854.49 C 1627.108 2785.268 1637.214 2728.9 1645.882 2704.3 C 1664.762 2650.726 1700.951 2599.71 1738.568 2569.87 C 1757.377 2554.951 1776.498 2545.405 1793.42 2542.911 C 1810.341 2540.416 1824.882 2544.281 1837.679 2557.064 C 1843.628 2563.007 1846.093 2570.84 1846.318 2580.355 C 1846.54 2589.87 1844.26 2600.734 1840.957 2610.853 C 1834.347 2631.089 1823.994 2647.949 1823.994 2647.949 C 1820.815 2652.978 1824.267 2659.565 1830.207 2659.806 C 1831.987 2659.879 1833.738 2659.332 1835.162 2658.26 C 1835.162 2658.26 1845.95 2650.438 1859.962 2646.528 C 1873.974 2642.617 1889.367 2642.24 1902.604 2656.784 C 1916.199 2671.721 1916.724 2687.477 1914.065 2700.609 C 1911.406 2713.741 1905.393 2723.021 1905.393 2723.021 C 1902.139 2728.001 1905.49 2734.64 1911.425 2734.972 C 1912.451 2735.029 1913.477 2734.881 1914.445 2734.536 C 1914.445 2734.536 1931.303 2728.851 1946.223 2730.282 C 1953.683 2730.996 1960.121 2733.276 1964.511 2738.074 C 1968.899 2742.872 1972.105 2750.826 1971.109 2765.489 C 1969.494 2789.316 1957.426 2815.471 1943.14 2843.567 C 1928.853 2871.663 1912.529 2901.675 1903.786 2934.267 C 1897.374 2958.168 1896.309 2997.431 1897.666 3044.287 C 1899.024 3091.143 1903.051 3145.157 1907.803 3196.397 C 1913.224 3254.861 1919.328 3307.167 1923.757 3343.057 L 1939.309 3343.057 C 1934.87 3307.121 1928.671 3254.044 1923.192 3194.967 C 1918.458 3143.925 1914.461 3090.157 1913.12 3043.847 C 1911.775 2997.533 1913.347 2958.27 1918.698 2938.277 C 1926.8 2908.076 1942.476 2878.91 1956.891 2850.561 C 1971.305 2822.212 1984.622 2794.659 1986.531 2766.546 C 1987.715 2749.106 1983.667 2736.11 1975.905 2727.626 C 1968.144 2719.142 1957.527 2715.816 1947.698 2714.874 C 1935.362 2713.69 1930.797 2716.195 1923.571 2718.087 C 1925.938 2713.133 1927.511 2712.077 1929.215 2703.663 C 1932.505 2687.414 1931.285 2665.325 1914.031 2646.369 C 1896.421 2627.021 1872.96 2626.866 1855.814 2631.652 C 1850.302 2633.189 1850.54 2634.157 1846.23 2636.178 C 1849.971 2628.839 1851.922 2626.994 1855.629 2615.644 C 1859.278 2604.472 1862.049 2592.153 1861.761 2579.98 C 1861.478 2567.807 1857.897 2555.44 1848.575 2546.129 C 1835.535 2533.105 1819.485 2527.016 1802.785 2526.832 L 1802.786 2526.829 Z" color="#000000" stroke-linecap="round" stroke-linejoin="round" stroke-width=".99999" style="-inkscape-stroke:none" fill="#1f1f2e"/>
      <path d="M 1869.807 2969.558 C 1868.767 2982.379 1868.252 2997.244 1868.154 3013.621 C 1878.721 3020.078 1888.692 3027.253 1897.424 3035.265 C 1897.424 3035.254 1897.424 3035.244 1897.424 3035.235 C 1896.937 3013.482 1897.019 2993.492 1898.024 2976.225 C 1898.025 2976.223 1898.024 2976.22 1898.024 2976.217 C 1891.124 2974.53 1881.221 2972.159 1869.807 2969.558 L 1869.807 2969.558 Z M 1880.254 3242.975 C 1881.521 3258.45 1882.796 3273.611 1884.082 3288.568 C 1896.342 3289.895 1906.863 3290.614 1914.196 3290.614 C 1915.289 3290.614 1916.373 3290.593 1917.454 3290.562 C 1915.861 3276.496 1914.183 3261.109 1912.453 3244.3 C 1912.453 3244.3 1912.453 3244.3 1912.453 3244.297 C 1904.598 3244.231 1893.332 3243.714 1880.254 3242.975 L 1880.254 3242.975 Z" fill="#ef660c"/>
      <path d="M 1601.523 3039.672 C 1598.046 3039.802 1596.624 3039.862 1594.93 3039.944 C 1593.376 3054.258 1591.846 3068.561 1590.361 3082.772 C 1592.297 3082.629 1594.814 3082.429 1597.061 3082.258 C 1598.492 3068.061 1599.981 3053.863 1601.523 3039.671 L 1601.523 3039.672 Z M 1572.163 3269.467 C 1570.888 3283.504 1569.679 3296.809 1568.673 3308.247 C 1571.682 3307.959 1574.785 3307.621 1577.839 3307.315 C 1578.697 3295.418 1579.623 3282.897 1580.631 3269.66 C 1577.793 3269.591 1574.928 3269.51 1572.162 3269.469 L 1572.163 3269.467 Z" fill="#f69442"/>
    </g>
  </g>
  <g transform="matrix(0.21871601045131686, 0, 0, 0.22467499971389773, 386.81683349609375, 67.04981231689455)" style="">
    <g transform="translate(-49.848 402.47)">
      <path d="m120.13-402.47 18.87 22.718 26.115-13.79-15.775 24.967 21.185 20.576-28.619-7.2875-13.022 26.507-1.9131-29.471-29.233-4.1937 27.437-10.926-5.0451-29.098z" fill="#f57800"/>
      <path d="m252.14-168.36 13.199 11.409 13.882-10.568-6.7723 16.079 14.341 9.9368-17.385-1.4722-5.0189 16.709-3.972-16.989-17.442 0.39018 14.93-9.0273-5.7611-16.468z" fill="#f57800"/>
      <path d="m142.35-81.385 17.078 3.5689 7.0076-15.978 1.8832 17.345 17.361 1.7272-15.914 7.1509 3.7222 17.045-11.719-12.925-15.061 8.8073 8.6716-15.139-13.03-11.602z" fill="#f57800"/>
      <path d="m385.92-243.56 17.078 3.5689 7.0076-15.978 1.8832 17.345 17.361 1.7272-15.914 7.1509 3.7222 17.045-11.719-12.925-15.061 8.8073 8.6716-15.139-13.03-11.602z" fill="#f57800"/>
      <path d="m70.667-139.74 12.596 12.072 14.406-9.8411-7.5892 15.71 13.811 10.66-17.286-2.3632-5.8706 16.43-3.0941-17.17-17.439-0.50623 15.374-8.2486-4.9076-16.742z" fill="#f57800"/>
      <path d="m345.52-96.898 10.477-4.5259-2.2726-11.184 7.5419 8.5654 9.9343-5.6174-5.8156 9.8196 8.4123 7.7122-11.136-2.4966-4.7352 10.384-1.0669-11.363-11.339-1.2947z" fill="#f57800"/>
      <path d="m473.36-122.93 8.6209 7.4784 9.0927-6.897-4.4484 10.51 9.3693 6.5163-11.37-0.9829-3.3021 10.924-2.5788-11.117-11.41 0.2353 9.7764-5.888-3.7497-10.779z" fill="#f57800"/>
      <path d="m434.29-172.93 11.171 2.3345 4.5839-10.452 1.2318 11.346 11.356 1.1298-10.41 4.6776 2.4348 11.15-7.6655-8.4549-9.8517 5.7611 5.6724-9.903-8.5235-7.5892z" fill="#f57800"/>
      <path d="m218.66-14.761 8.7496 7.3273 8.9714-7.0541-4.2649 10.586 9.4812 6.3524-11.386-0.78505-3.1117 10.98-2.7717-11.071-11.404 0.43366 9.6725-6.0571-3.9366-10.712z" fill="#f57800"/>
      <path d="m295.58-65.026 11.069 2.7782 4.9971-10.26 0.77834 11.386 11.302 1.5819-10.588 4.2587 1.9882 11.238-7.3222-8.7539-10.074 5.3636 6.0628-9.6689-8.214-7.9231z" fill="#f57800"/>
      <path d="m272.09 32.476 11.131-2.518-0.17296-11.411 5.8345 9.8084 10.799-3.6908-7.5254 8.5799 6.8473 9.1302-10.485-4.5057-6.5674 9.3335 1.045-11.365-10.906-3.3618z" fill="#f57800"/>
      <path d="m263.71-277 13.822 10.647 13.264-11.334-5.8547 16.435 14.878 9.1121-17.44-0.4894-4.0685 16.966-4.9238-16.738-17.393 1.3733 14.397-9.855-6.6807-16.117z" fill="#f57800"/>
      <path d="m93.338-297.15-0.61713 29.526 28.767 6.6812-28.272 8.5372 2.5353 29.424-16.856-24.25-27.2 11.504 17.854-23.524-19.346-22.314 27.89 9.711 15.244-25.294z" fill="#f57800"/>
      <path d="m394.21-85.974c-2.439-12.127-3.9307-24.677-3.712-37.134 0.21906-12.474 2.1532-24.855 6.569-36.625 3.1081-7.1586 7.1186-14.014 12.068-20.051 4.6648-5.2786 10.27-9.8587 16.479-13.296 6.2162-3.4418 13.037-5.7382 20.123-6.4436 6.2394-0.5815 13.634 2.2266 15.277 8.8757-0.60985 2.7157-5.3485-2.3516-7.7978-1.7378-11.601-2.6769-23.519 2.3979-31.919 10.313-7.1337 6.3864-12.846 14.153-17.112 22.675-4.2627 8.5148-7.0806 17.783-8.4283 27.178-1.1624 6.6477-1.6977 13.373-1.7224 20.104s0.46112 13.469 1.341 20.142c0.15807 2.0429 0.11722 4.2861-1.1646 6.0004" fill="#d0bfad"/>
      <path d="m464.87 72.728c-21.524-18.24-46.701-34.289-75.296-37.641-23.026-2.7236-46.339-0.51685-69.052 3.6543-7.3385-3.2923 2.5212-11.356 7.4803-11.482 16.188-5.5008 33.64-4.4365 50.41-3.106 27.931 2.8901 56.484 12.866 76.032 33.801 4.0859 4.4521 7.6516 9.4 10.426 14.774z" fill="#d0bfad"/>
      <path d="m474.35-149.79c-15.985-0.63099-32.523 7.1691-40.13 21.638-10.624 19.352-9.2335 42.3-7.9092 63.594 3.7493 42.261 19.081 84.186 46.706 116.72 2.0358 2.2916 7.0431 7.609 2.7721 2.2013-24.56-34.698-36.347-76.853-40.692-118.73-1.3248-17.122-1.3317-34.841 3.8775-51.349 6.7478-16.824 26.686-26.499 44.105-21.587 15.896 2.7355 30.465 16.27 30.331 33.107 0.71965 11.012-6.818 23.649-18.888 23.555-6.9368 0.74359-17.698-10.676-21.582-4.2665 3.2602 9.2186 14.879 10.411 23.237 11.283 15.721-0.31002 29.097-15.28 27.629-30.958-0.41327-25.372-24.731-45.804-49.458-45.207z" fill="#d0bfad"/>
      <path d="m391.14-7.8805c-24.879-31.251-51.478-63.335-88.086-81.198-21.374-9.9338-46.117-15.31-69.385-9.5082-10.855 2.8197-23.45 9.7854-24.724 22.118-0.90095 16.808 13.794 30.772 29.377 34.281 15.794 3.8606 33.374-0.37001 45.604-11.105-3.5618 14.516-20.049 21.161-33.781 20.087-16.745-0.55644-35.217-5.461-45.899-19.256-8.751-12.027-8.5362-30.949 3.5818-40.716 13.64-11.883 32.67-14.876 50.199-14.878 32.221 1.1442 62.195 16.559 87.159 36.074 17.181 13.917 33.042 29.393 48.986 44.666 4.9808 5.8057 4.4811 15.943-3.0313 19.436z" fill="#d0bfad"/>
      <path d="m194.54-222.03c-5.9908-10.264-12.232-20.648-19.069-30.601s-14.268-19.473-22.64-28.015c-8.3791-8.5491-17.7-16.117-28.308-22.153-6.6468-3.6624-13.598-7.1111-20.807-9.7342-7.223-2.6282-14.705-4.4274-22.4-4.7821-9.8159 0.24716-19.18 5.5931-24.81 13.565-7.4132 4.18-8.3668-11.716-4.1789-15.753 7.4763-8.1647 19.716-6.3408 29.598-4.9714 11.468 1.7413 22.423 5.4961 32.718 10.652 10.288 5.1517 19.917 11.702 28.742 19.039 8.5203 6.6863 16.307 14.212 23.389 22.362s13.457 16.92 19.155 26.098c4.8918 7.6116 9.6532 15.348 14.049 23.277s8.43 16.062 11.86 24.452c-0.3583 4.4293-5.9005-5.3097-7.2252-7.2227-3.4821-5.3258-6.7987-10.757-10.073-16.213" fill="#d0bfad"/>
      <path d="m248.05-127.89c-11.169-5.3168-22.978-9.8179-35.114-12.637-12.152-2.8231-24.632-3.9601-37.122-2.5415-7.6998 1.2726-15.325 3.4943-22.385 6.8251-6.2552 3.2394-12.06 7.5616-16.905 12.746-4.8505 5.1911-8.7379 11.247-11.15 17.946-2.0808 5.9116-1.16 13.771 4.892 16.983 2.7825 0.06937-0.97931-5.76 0.2121-7.9863 0.22668-11.903 8.0494-22.229 17.771-28.45 7.9305-5.365 16.854-9.0157 26.157-11.08s18.971-2.5403 28.412-1.5608c6.7306 0.49085 13.383 1.6085 19.918 3.2227s12.951 3.7248 19.21 6.2014c1.9432 0.65008 4.1292 1.1574 6.1039 0.3308" fill="#d0bfad"/>
      <path d="m266.5-180.32c-26.279-30.083-53.069-62.008-64.072-101.23-5.9368-22.81-6.7851-48.116 3.0979-69.965 4.722-10.173 13.835-21.313 26.195-20.354 16.697 2.13 27.797 19.093 28.452 35.052 0.9636 16.23-6.3533 32.766-19.109 42.871 14.92-0.89899 24.415-15.926 25.823-29.628 2.4577-16.573 0.94761-35.625-10.706-48.609-10.262-10.767-28.915-13.952-40.698-3.7831-14.138 11.286-20.498 29.47-23.646 46.714-4.6567 31.904 5.1287 64.157 19.847 92.218 10.608 19.399 22.986 37.78 35.15 56.206 4.8176 5.9418 14.88 7.2695 19.665 0.50584z" fill="#d0bfad"/>
      <path d="m328.7-137c-5.5966-11.881-10.497-24.392-13.638-37.253-3.1462-12.88-4.5286-26.112-3.0807-39.415 1.3118-9.1215 3.008-18.677 8.2569-26.44 4.7525-6.3819 13.895-10.108 21.366-6.2727 6.2673 2.8715 11.033 7.7139 14.578 13.445 3.5264 5.7017 5.8436 12.283 7.2268 18.678 1.3079 6.9214 2.2419 14.17 0.89498 21.142-1.3863 5.8497-7.4875 8.9609-13.16 8.155-5.8816-0.34559-11.348-2.7543-17.047-4.0124 1.4459 5.2 7.0911 7.7188 10.969 10.984 5.8448 3.837 14.736 5.0246 19.827-0.7071 7.851-8.2884 8.6482-20.623 7.8586-31.444-0.64132-7.4098-2.6898-14.727-6.0369-21.367s-7.9973-12.612-13.837-17.319c-7.327-6.5849-18.67-10.771-27.886-5.5588-11.621 6.3707-16.619 19.893-18.415 32.318-1.4618 9.478-1.8551 19.04-1.357 28.566 0.49783 9.5208 1.8861 19.005 3.9879 28.333s4.9192 18.506 8.2727 27.403c0.7989 5.3728 8.5696 8.6132 10.777 2.4088l0.26685-0.79285 0.17548-0.84882" fill="#d0bfad"/>
      <path d="m181.39-185.51c-10.931-7.2797-22.587-13.963-34.848-18.958-12.279-5.0025-25.164-8.312-38.536-8.8322-9.2153-0.0411-18.916 0.23428-27.366 4.2869-7.0103 3.7644-12.038 12.261-9.3406 20.214 1.9206 6.6208 6.011 12.046 11.16 16.393 5.1224 4.325 11.292 7.5831 17.415 9.8899 6.6544 2.3096 13.687 4.2973 20.781 3.9882 5.9898-0.51274 9.9627-6.0912 9.9983-11.821 0.52137-5.8686-1.059-11.629-1.4669-17.451 4.9315 2.1934 6.5945 8.1472 9.2552 12.462 2.9376 6.3446 2.8074 15.314-3.6094 19.509-9.3509 6.5495-21.669 5.5277-32.257 3.1585-7.2354-1.7219-14.172-4.822-20.25-9.1075s-11.301-9.7617-15.101-16.229c-5.4382-8.2141-7.9144-20.048-1.4059-28.4 8.0074-10.56 22.117-13.519 34.671-13.472 9.5899-0.0549 19.106 0.95946 28.455 2.8502 9.3446 1.8898 18.523 4.655 27.441 8.1031s17.583 7.582 25.892 12.205c5.1974 1.5788 7.2622 9.7409 0.80098 11.014l-0.82342 0.14759-0.86539 0.049" fill="#d0bfad"/>
      <path d="m356.18-10.829c-12.251-1.7074-24.868-2.444-37.29-1.4787-12.438 0.96662-24.681 3.6397-36.165 8.7533-6.9594 3.5318-13.561 7.9461-19.291 13.248-4.9894 4.973-9.2251 10.843-12.284 17.247-3.0628 6.4114-4.9461 13.357-5.2254 20.473-0.20632 6.263 3.0401 13.476 9.7758 14.717 2.6743-0.7716-2.6681-5.1978-2.2023-7.6796-3.3677-11.419 0.9833-23.621 8.3805-32.48 5.9472-7.5038 13.358-13.672 21.608-18.441 8.2439-4.7656 17.326-8.1342 26.624-10.043 6.5661-1.5589 13.247-2.4965 19.964-2.9248s13.472-0.34732 20.186 0.13089c2.0487 0.03529 4.2855-0.14 5.9198-1.5223" fill="#d0bfad"/>
    </g>
  </g>
</svg>